<svg width="26" height="34" viewBox="0 0 26 34" fill="none" xmlns="http://www.w3.org/2000/svg">
<path fill-rule="evenodd" clip-rule="evenodd" d="M0 2.55553C0 1.14415 1.09329 0 2.44464 0H14.6179C15.968 0 17.0625 1.14096 17.0625 2.55553V31.4445C17.0625 32.8559 15.9692 34 14.6179 34H2.44464C1.0945 34 0 32.859 0 31.4445V2.55553ZM0.8125 4.25H16.25V28.9H0.8125V4.25ZM8.53125 33.15C9.20435 33.15 9.75 32.5792 9.75 31.875C9.75 31.1708 9.20435 30.6 8.53125 30.6C7.85815 30.6 7.3125 31.1708 7.3125 31.875C7.3125 32.5792 7.85815 33.15 8.53125 33.15ZM6.5 2.975C6.5 2.74028 6.67456 2.55 6.90438 2.55H10.1581C10.3815 2.55 10.5625 2.74714 10.5625 2.975C10.5625 3.20972 10.3879 3.4 10.1581 3.4H6.90438C6.68105 3.4 6.5 3.20286 6.5 2.975Z" fill="#002B3D"/>
<path fill-rule="evenodd" clip-rule="evenodd" d="M23.5625 10.2H10.5625C9.66875 10.2 8.9375 10.965 8.9375 11.9V22.0999C8.9375 23.0349 9.66875 23.7999 10.5625 23.7999H23.5625C24.4563 23.7999 25.1875 23.0349 25.1875 22.0999V11.9C25.1875 10.965 24.4563 10.2 23.5625 10.2Z" fill="#002B3D" stroke="#DADADA"/>
<path fill-rule="evenodd" clip-rule="evenodd" d="M23.5625 13.6L17.0625 17.85L10.5625 13.6V11.9L17.0625 16.15L23.5625 11.9V13.6Z" fill="#DADADA"/>
</svg>
