<svg width="27" height="22" viewBox="0 0 27 22" fill="none" xmlns="http://www.w3.org/2000/svg">
<g clip-path="url(#clip0_227_316)">
<path d="M24.4271 0.0825847L0.64317 9.39258C0.474858 9.45867 0.331311 9.57594 0.232594 9.72799C0.133876 9.88003 0.0849228 10.0593 0.0925748 10.2406C0.100227 10.422 0.164102 10.5964 0.275273 10.7395C0.386444 10.8826 0.539353 10.9873 0.712629 11.0388L6.75636 12.8317L9.01183 20.0211C9.06575 20.1928 9.16301 20.3475 9.29413 20.4703C9.42524 20.593 9.58576 20.6795 9.76005 20.7214C9.93433 20.7633 10.1165 20.7592 10.2887 20.7094C10.4609 20.6597 10.6174 20.5659 10.7428 20.4374L13.8646 17.2327L19.9989 21.7505C20.1715 21.8779 20.3731 21.9597 20.5854 21.9885C20.7977 22.0172 21.0137 21.992 21.2137 21.915C21.4138 21.8381 21.5913 21.712 21.7302 21.5482C21.8691 21.3844 21.9648 21.1882 22.0085 20.9775L26.0668 1.47642C26.111 1.2602 26.0964 1.03602 26.0246 0.827417C25.9527 0.618814 25.8263 0.433487 25.6586 0.290899C25.4908 0.148311 25.288 0.0537224 25.0713 0.0170677C24.8546 -0.019587 24.6321 0.00304432 24.4271 0.0825847ZM21.445 4.41068L10.3979 14.2247C10.2877 14.3226 10.2176 14.4581 10.2012 14.605L9.77588 18.4031C9.77274 18.4292 9.7608 18.4535 9.74204 18.4718C9.72329 18.4902 9.69884 18.5015 9.67277 18.504C9.6467 18.5065 9.62057 18.4999 9.59872 18.4854C9.57687 18.4709 9.56063 18.4493 9.55268 18.4243L7.80293 12.7588C7.76389 12.6326 7.76769 12.497 7.81375 12.3733C7.8598 12.2495 7.9455 12.1447 8.05735 12.0752L21.1024 3.94738C21.1638 3.90671 21.2384 3.89117 21.3108 3.90395C21.3832 3.91673 21.448 3.95686 21.492 4.01611C21.5359 4.07536 21.5556 4.14925 21.547 4.22261C21.5384 4.29598 21.5022 4.36327 21.4458 4.41068H21.445Z" fill="#53A8DB"/>
</g>
<defs>
<clipPath id="clip0_227_316">
<rect width="27" height="22" fill="white"/>
</clipPath>
</defs>
</svg>
