<svg width="39" height="22" viewBox="0 0 39 22" fill="none" xmlns="http://www.w3.org/2000/svg">
<path d="M38.3552 19.8684C38.3085 19.7678 38.265 19.6843 38.2245 19.6175C37.5555 18.4125 36.2771 16.9336 34.3899 15.1802L34.3501 15.1401L34.3301 15.1204L34.3099 15.1002H34.2897C33.4332 14.2837 32.8908 13.7348 32.6637 13.4537C32.2481 12.9183 32.155 12.3764 32.3821 11.8272C32.5426 11.4124 33.1454 10.5362 34.189 9.19754C34.738 8.4881 35.1728 7.9195 35.4939 7.49113C37.8095 4.41259 38.8135 2.44536 38.5055 1.58868L38.3859 1.38848C38.3055 1.26795 38.098 1.15769 37.7638 1.05714C37.4288 0.956795 37.0007 0.9402 36.4785 1.00707L30.6967 1.04701C30.603 1.01382 30.4693 1.01692 30.295 1.05714C30.121 1.09736 30.0339 1.11754 30.0339 1.11754L29.9333 1.16782L29.8534 1.22822C29.7865 1.26816 29.7129 1.33841 29.6325 1.43883C29.5525 1.53889 29.4857 1.65632 29.4322 1.79014C28.8027 3.40964 28.087 4.91537 27.2838 6.30725C26.7885 7.13721 26.3337 7.8565 25.9183 8.46553C25.5035 9.07434 25.1555 9.5229 24.8747 9.81043C24.5934 10.0982 24.3396 10.3288 24.1116 10.503C23.884 10.6772 23.7102 10.7509 23.5899 10.7239C23.4693 10.697 23.3557 10.6703 23.2482 10.6436C23.061 10.523 22.9103 10.3591 22.7968 10.1517C22.6827 9.94425 22.6059 9.68316 22.5658 9.36862C22.5258 9.05388 22.5022 8.78316 22.4955 8.55553C22.4892 8.3282 22.4921 8.00663 22.5057 7.59175C22.5196 7.17666 22.5258 6.89581 22.5258 6.74856C22.5258 6.23988 22.5358 5.68781 22.5557 5.09222C22.5759 4.49662 22.5923 4.02471 22.606 3.67706C22.6196 3.32905 22.626 2.96087 22.626 2.57271C22.626 2.18455 22.6023 1.88014 22.5557 1.6592C22.5095 1.43855 22.4387 1.22436 22.3454 1.01671C22.2515 0.809267 22.1141 0.648801 21.9338 0.534885C21.7532 0.42111 21.5286 0.330821 21.2613 0.263738C20.5519 0.103201 19.6485 0.0163577 18.5507 0.0028566C16.0614 -0.0238644 14.4619 0.136883 13.7525 0.484888C13.4714 0.631924 13.2171 0.832823 12.9897 1.08695C12.7487 1.38152 12.7151 1.54227 12.8891 1.56871C13.6922 1.68902 14.2608 1.97683 14.5955 2.43186L14.7161 2.67298C14.8099 2.84695 14.9035 3.15495 14.9973 3.59655C15.0909 4.03814 15.1513 4.52665 15.1779 5.06177C15.2447 6.03898 15.2447 6.87549 15.1779 7.57136C15.1108 8.26751 15.0476 8.80945 14.9872 9.19761C14.9268 9.58577 14.8365 9.9003 14.7161 10.1411C14.5955 10.3821 14.5152 10.5293 14.475 10.5827C14.4349 10.6362 14.4014 10.6699 14.3748 10.6831C14.2009 10.7497 14.0199 10.7837 13.8327 10.7837C13.6451 10.7837 13.4177 10.6899 13.1501 10.5024C12.8825 10.315 12.6048 10.0575 12.317 9.7295C12.0292 9.40146 11.7046 8.94306 11.3431 8.35421C10.9819 7.76537 10.6071 7.06943 10.2189 6.26639L9.8978 5.68401C9.69704 5.30936 9.4228 4.76383 9.07479 4.04792C8.72657 3.33173 8.41879 2.63895 8.15123 1.96973C8.04428 1.68867 7.8836 1.47469 7.66948 1.32744L7.56899 1.26704C7.50219 1.2136 7.39496 1.15685 7.24785 1.09638C7.10053 1.03597 6.94682 0.992657 6.78607 0.966006L1.28514 1.00595C0.723013 1.00595 0.341606 1.13329 0.140777 1.38763L0.0604034 1.50795C0.0202517 1.57496 0 1.68199 0 1.8293C0 1.97655 0.0401518 2.15727 0.120526 2.37125C0.923561 4.25859 1.79684 6.07878 2.74038 7.8321C3.68391 9.58542 4.50382 10.9978 5.19962 12.0679C5.89556 13.1387 6.60493 14.1494 7.32773 15.0994C8.05053 16.0498 8.52898 16.6588 8.76307 16.9264C8.99744 17.1944 9.18153 17.3948 9.31535 17.5286L9.81735 18.0104C10.1386 18.3317 10.6103 18.7165 11.2326 19.1647C11.8552 19.6133 12.5444 20.0549 13.3006 20.4902C14.0569 20.9249 14.9368 21.2796 15.9407 21.5539C16.9445 21.8285 17.9215 21.9387 18.8719 21.8855H21.1807C21.649 21.8451 22.0037 21.6978 22.2448 21.4437L22.3247 21.3431C22.3785 21.2632 22.4287 21.1391 22.4751 20.9721C22.5221 20.8048 22.5455 20.6205 22.5455 20.42C22.5317 19.8446 22.5756 19.326 22.6757 18.8643C22.7758 18.4027 22.8898 18.0547 23.0174 17.8203C23.1449 17.5862 23.2887 17.3886 23.4488 17.2284C23.6093 17.0678 23.7236 16.9706 23.7907 16.9371C23.8574 16.9034 23.9106 16.8806 23.9508 16.8669C24.272 16.7599 24.65 16.8635 25.0854 17.1783C25.5205 17.4929 25.9285 17.8812 26.3102 18.3428C26.6917 18.8048 27.15 19.3231 27.6853 19.8985C28.2209 20.4741 28.6892 20.902 29.0906 21.1835L29.492 21.4244C29.76 21.5852 30.1081 21.7324 30.5364 21.8662C30.964 22 31.3387 22.0334 31.6604 21.9666L36.7998 21.8864C37.3081 21.8864 37.7036 21.8022 37.9842 21.6352C38.2653 21.4679 38.4323 21.2836 38.4862 21.0832C38.5399 20.8825 38.5428 20.6548 38.4964 20.4002C38.4488 20.1463 38.4019 19.9688 38.3552 19.8684Z" fill="#3F688C"/>
</svg>
