<svg width="9" height="15" viewBox="0 0 9 15" fill="#53555e" xmlns="http://www.w3.org/2000/svg">
<path d="M6.19 -4.85899e-05C6.85814 -0.0106267 7.52625 0.0228764 8.19 0.100049V2.45991H6.79001C6.61037 2.44318 6.42919 2.46303 6.25735 2.51802C6.08552 2.573 5.92657 2.66182 5.79001 2.77974C5.58765 3.07176 5.4955 3.42613 5.53 3.77974V5.45991H8.13L7.78 8.10981H5.53V14.8798H2.79001V8.10981H0.52002V5.45991H2.79001V3.51997C2.76101 3.04925 2.82854 2.57741 2.98846 2.13374C3.14839 1.69007 3.39734 1.28385 3.72 0.939893C4.04926 0.629767 4.43775 0.38923 4.86218 0.232862C5.28661 0.0764931 5.73824 0.00735587 6.19 0.0297366V-4.85899e-05Z"/>
</svg>
