<svg width="14" height="14" viewBox="0 0 14 14" fill="#53555e" xmlns="http://www.w3.org/2000/svg">
<path d="M13.9902 4.17003C13.9902 4.69003 13.9902 5.6301 13.9902 7.0001C13.9902 8.3701 13.9902 9.30018 13.9902 9.83018C14.019 10.3631 13.9354 10.8958 13.7446 11.3941C13.5538 11.8925 13.2601 12.3454 12.8827 12.7228C12.5054 13.1001 12.0528 13.3938 11.5544 13.5846C11.0561 13.7754 10.523 13.8591 9.99016 13.8302C9.46016 13.8302 8.52021 13.8302 7.16021 13.8302C5.80021 13.8302 4.85019 13.8302 4.33019 13.8302C3.7977 13.8575 3.26541 13.7725 2.76775 13.5812C2.27009 13.3898 1.81811 13.0964 1.44109 12.7193C1.06407 12.3423 0.770395 11.8903 0.57903 11.3927C0.387665 10.895 0.302901 10.3627 0.330189 9.83018C0.330189 9.30018 0.330189 8.3601 0.330189 7.0001C0.330189 5.6401 0.330189 4.69003 0.330189 4.17003C0.302901 3.63754 0.387665 3.10519 0.57903 2.60753C0.770395 2.10986 1.06407 1.65788 1.44109 1.28087C1.81811 0.903846 2.27009 0.610414 2.76775 0.419049C3.26541 0.227684 3.7977 0.142737 4.33019 0.170026C4.85019 0.170026 5.79021 0.170026 7.16021 0.170026C8.53021 0.170026 9.46016 0.170026 9.99016 0.170026C10.5226 0.142737 11.0549 0.227684 11.5526 0.419049C12.0503 0.610414 12.5022 0.903846 12.8793 1.28087C13.2563 1.65788 13.55 2.10986 13.7413 2.60753C13.9327 3.10519 14.0175 3.63754 13.9902 4.17003ZM7.86016 1.37022H6.49016C6.08016 1.37022 5.77016 1.37022 5.55016 1.37022H4.69017C4.3822 1.38485 4.07516 1.41473 3.77019 1.46006C3.55215 1.49722 3.33792 1.55405 3.13018 1.62999C2.8384 1.75013 2.57327 1.92688 2.35015 2.15001C2.12702 2.37313 1.95033 2.6385 1.83019 2.93028C1.75425 3.13802 1.69736 3.35188 1.66021 3.56993C1.61488 3.8749 1.58481 4.18187 1.57018 4.48985C1.57018 4.84985 1.57018 5.1402 1.57018 5.3502C1.57018 5.5602 1.57018 5.88014 1.57018 6.29014V7.71006C1.57018 8.12006 1.57018 8.44001 1.57018 8.65001C1.57018 8.86001 1.57018 9.14987 1.57018 9.50987C1.58481 9.81785 1.61488 10.1253 1.66021 10.4303C1.69736 10.6483 1.75425 10.8622 1.83019 11.0699C1.94718 11.3663 2.12418 11.6353 2.35015 11.86C2.56994 12.0847 2.83616 12.259 3.13018 12.3702C3.33792 12.4462 3.55215 12.503 3.77019 12.5401C4.07516 12.5855 4.3822 12.6154 4.69017 12.63H5.55016H8.80016H9.66021C9.96818 12.6154 10.2752 12.5855 10.5802 12.5401C10.7985 12.5043 11.0129 12.4475 11.2202 12.3702C11.5161 12.257 11.7851 12.083 12.0102 11.86C12.2328 11.6326 12.4094 11.3643 12.5302 11.0699C12.6024 10.8618 12.6559 10.6479 12.6902 10.4303C12.7355 10.1253 12.7656 9.81785 12.7802 9.50987C12.7802 9.14987 12.7802 8.86001 12.7802 8.65001V7.71006C12.7802 7.30006 12.7802 7.06989 12.7802 7.02989C12.7802 6.98989 12.7802 6.75995 12.7802 6.33995V5.40001C12.7802 5.19001 12.7802 4.90014 12.7802 4.54014C12.7656 4.23217 12.7355 3.92519 12.6902 3.62022C12.6559 3.40257 12.6024 3.18826 12.5302 2.98008C12.4099 2.6868 12.232 2.42067 12.0069 2.19737C11.7819 1.97407 11.5144 1.79834 11.2202 1.68028C11.0129 1.60304 10.7985 1.5457 10.5802 1.50987C10.2752 1.46454 9.96818 1.43466 9.66021 1.42003H8.80016C8.59016 1.36003 8.27016 1.36022 7.86016 1.37022ZM9.67016 4.5001C10.1594 4.99291 10.492 5.61951 10.626 6.30088C10.76 6.98226 10.6895 7.68782 10.4233 8.32921C10.1572 8.97059 9.7072 9.51911 9.13012 9.90538C8.55303 10.2916 7.87459 10.4985 7.18016 10.5001C6.60042 10.5014 6.02934 10.3595 5.51763 10.087C5.00592 9.81451 4.56947 9.41987 4.247 8.93809C3.92453 8.45631 3.72604 7.90225 3.66918 7.3253C3.61232 6.74835 3.69879 6.16643 3.92101 5.63096C4.14323 5.0955 4.49426 4.62312 4.94292 4.25596C5.39159 3.88881 5.924 3.63836 6.49285 3.52647C7.06169 3.41459 7.64937 3.44448 8.20366 3.61436C8.75796 3.78425 9.2617 4.08869 9.67016 4.5001ZM8.79015 8.60997C9.00711 8.40254 9.17867 8.15223 9.294 7.8751C9.40932 7.59798 9.46594 7.30021 9.46019 7.0001C9.46612 6.69849 9.40966 6.39899 9.29436 6.12022C9.17907 5.84145 9.00738 5.58931 8.79015 5.37999C8.58272 5.16303 8.33259 4.9914 8.05547 4.87608C7.77835 4.76076 7.48027 4.70432 7.18016 4.71006C6.57282 4.71006 5.99036 4.9515 5.5609 5.38096C5.13144 5.81042 4.89019 6.39276 4.89019 7.0001C4.88444 7.30021 4.941 7.59798 5.05632 7.8751C5.17165 8.15223 5.34321 8.40254 5.56017 8.60997C5.76986 8.82672 6.0219 8.99813 6.30059 9.11339C6.57927 9.22864 6.87863 9.28521 7.18016 9.27989C7.48027 9.28563 7.77835 9.2292 8.05547 9.11387C8.33259 8.99855 8.58272 8.82692 8.79015 8.60997ZM11.4202 2.7501C11.5747 2.9056 11.6614 3.11586 11.6614 3.33506C11.6614 3.55427 11.5747 3.76453 11.4202 3.92003C11.3447 3.99707 11.2544 4.05798 11.1547 4.09922C11.055 4.14047 10.9481 4.16142 10.8402 4.16026C10.7322 4.16261 10.6248 4.14249 10.525 4.10118C10.4251 4.05986 10.335 3.99802 10.2602 3.92003C10.1057 3.76453 10.019 3.55427 10.019 3.33506C10.019 3.11586 10.1057 2.9056 10.2602 2.7501C10.335 2.67211 10.4251 2.61027 10.525 2.56895C10.6248 2.52764 10.7322 2.50752 10.8402 2.50987C10.9453 2.5034 11.0506 2.51803 11.1501 2.55235C11.2497 2.58667 11.3414 2.6402 11.4202 2.71006V2.7501Z"/>
</svg>
