<svg width="18" height="11" viewBox="0 0 18 11" fill="#53555e" xmlns="http://www.w3.org/2000/svg">
<path d="M17.13 1.64001C17.26 2.02001 16.82 2.88964 15.79 4.25964L15.2099 5.01989C14.9699 5.32989 14.8099 5.53979 14.7199 5.66979C14.6189 5.81139 14.5254 5.95821 14.4399 6.10973C14.3657 6.21817 14.3304 6.34875 14.3399 6.47985C14.3695 6.58558 14.4062 6.68921 14.45 6.78991C14.5236 6.93259 14.6217 7.0611 14.7399 7.16979L15.2499 7.64977H15.3C15.9663 8.22485 16.5397 8.89948 16.9999 9.64977C17.0241 9.68399 17.0443 9.72077 17.0599 9.75964C17.089 9.83364 17.1092 9.91084 17.1199 9.98962C17.1402 10.092 17.1402 10.1973 17.1199 10.2997C17.0791 10.4043 17.0007 10.4902 16.8999 10.5399C16.7377 10.6281 16.5543 10.6697 16.3699 10.66H14.08C13.916 10.7024 13.7439 10.7024 13.58 10.66C13.4197 10.6107 13.2653 10.5434 13.1199 10.4598L12.9399 10.35C12.7103 10.1866 12.502 9.99476 12.32 9.77966C12.08 9.52966 11.87 9.28971 11.7 9.08971C11.543 8.8939 11.3615 8.71911 11.16 8.56969C11.0917 8.50829 11.0101 8.46363 10.9215 8.43932C10.833 8.41502 10.74 8.41209 10.6499 8.43005H10.58L10.4299 8.55993C10.3564 8.64229 10.2926 8.73291 10.2399 8.82995C10.166 8.97442 10.1154 9.12963 10.0899 9.28991C10.0385 9.51609 10.0183 9.74819 10.0299 9.97985C10.0404 10.0629 10.0404 10.1468 10.0299 10.2299C10.0187 10.2877 9.99477 10.3425 9.95994 10.39V10.4398C9.82843 10.5608 9.6585 10.6319 9.47996 10.64H8.47996C8.03815 10.6583 7.5962 10.6073 7.16996 10.4896C6.7598 10.384 6.3661 10.2225 5.99995 10.0096C5.65995 9.81964 5.35996 9.62005 5.07996 9.43005C4.85408 9.27691 4.64314 9.10278 4.44996 8.91003L4.12995 8.70983C4.06995 8.64983 3.97995 8.55981 3.87995 8.43981C3.77995 8.31981 3.55994 8.04975 3.23994 7.62975C2.91994 7.20975 2.59997 6.75966 2.29997 6.27966C1.99997 5.79966 1.61996 5.17977 1.19996 4.39977C0.779959 3.61977 0.389956 2.8096 0.0399557 1.9696C0.00566068 1.89386 -0.0146635 1.81281 -0.0200419 1.72985C-0.033684 1.68078 -0.033684 1.62902 -0.0200419 1.57995V1.52966C0.0448109 1.46506 0.12358 1.41654 0.210244 1.38708C0.296908 1.35761 0.38917 1.34805 0.479958 1.35973H2.92994C3.00228 1.3704 3.07291 1.39063 3.13996 1.41979C3.19013 1.43981 3.23723 1.46682 3.27995 1.49987C3.38201 1.57093 3.45901 1.67247 3.49995 1.78991C3.61995 2.08991 3.74995 2.38983 3.90995 2.70983C4.06995 3.02983 4.18997 3.26981 4.26997 3.43981L4.41996 3.70007C4.56946 4.01899 4.73638 4.32915 4.91996 4.62975C5.047 4.84409 5.19078 5.04793 5.34995 5.23962C5.4602 5.36641 5.58431 5.48079 5.71995 5.57995C5.80375 5.65381 5.90877 5.6992 6.01997 5.70983C6.10566 5.70861 6.1904 5.69186 6.26997 5.66003L6.37995 5.45983C6.4385 5.32581 6.47885 5.18463 6.49995 5.03991C6.49995 4.86991 6.49996 4.62969 6.57996 4.31969C6.61018 3.94697 6.61018 3.57279 6.57996 3.20007C6.56994 2.98167 6.54318 2.76398 6.49995 2.54967C6.47694 2.4086 6.43664 2.27123 6.37995 2.14001L6.31995 2.02966C6.22517 1.91866 6.10905 1.82784 5.97849 1.76257C5.84794 1.69729 5.70561 1.659 5.55994 1.64977C5.48994 1.64977 5.49994 1.56981 5.55994 1.43981C5.64925 1.32312 5.76606 1.23034 5.89994 1.16979C6.58976 0.963031 7.31243 0.888663 8.02995 0.950066C8.43618 0.951513 8.84134 0.991324 9.23994 1.06969C9.34578 1.09317 9.44712 1.13381 9.53996 1.18981C9.62008 1.23969 9.68291 1.31296 9.71995 1.39977C9.75902 1.49339 9.78915 1.59053 9.80995 1.68981C9.82399 1.82612 9.82399 1.96366 9.80995 2.09997C9.80995 2.26997 9.80995 2.42971 9.80995 2.58971C9.80995 2.74971 9.80995 2.9496 9.80995 3.2196C9.80995 3.4896 9.80995 3.73007 9.80995 3.95007C9.80995 4.02007 9.80995 4.13995 9.80995 4.32995C9.80995 4.51995 9.80995 4.65964 9.80995 4.75964C9.80163 4.87949 9.80163 5.00013 9.80995 5.11999C9.82379 5.24136 9.85758 5.35923 9.90995 5.4696C9.9601 5.55641 10.0283 5.63165 10.11 5.68981H10.26C10.32 5.68981 10.3899 5.68971 10.4999 5.58971C10.6213 5.49555 10.735 5.39183 10.8399 5.27966C11.0081 5.09497 11.1619 4.89789 11.3 4.68981C11.48 4.41981 11.69 4.09981 11.91 3.68981C12.2737 3.04657 12.5912 2.37821 12.86 1.68981L12.95 1.52966L13.05 1.43981H13.17H13.3399H15.92C16.1082 1.40313 16.3017 1.40313 16.4899 1.43981C16.5931 1.46131 16.6872 1.51352 16.76 1.58971L17.13 1.64001Z"/>
</svg>
