<svg width="164" height="32" viewBox="0 0 164 32" fill="none" xmlns="http://www.w3.org/2000/svg">
<path d="M25.5402 20.671C26.0353 20.671 26.2828 21.3049 26.2828 22.5728C26.2283 23.4746 25.9391 24.3465 25.444 25.1016C24.8408 26.1107 24.082 27.0177 23.1956 27.7888C22.2731 28.6025 21.2378 29.2778 20.122 29.7939C19.0924 30.2945 17.9658 30.5626 16.8216 30.5794C15.3639 30.5794 14.3875 29.2978 13.8925 26.7346C13.1795 27.9022 12.2108 28.8918 11.0596 29.6286C9.6558 30.4519 8.04285 30.847 6.41836 30.7655C5.55422 30.8028 4.69178 30.6597 3.88572 30.3454C3.07966 30.031 2.34757 29.5523 1.73587 28.9395C1.16252 28.3644 0.712944 27.6775 0.414919 26.9214C0.116893 26.1653 -0.0232519 25.356 0.00314147 24.5434C0.00314147 19.858 1.5571 16.1647 4.665 13.4637C5.73611 12.4818 6.99119 11.723 8.35736 11.2312C9.5263 10.8688 10.7436 10.6876 11.9672 10.6937C13.04 10.659 14.1042 10.896 15.0614 11.3828C15.4464 10.5835 15.8865 10.1838 16.3815 10.1838C16.9005 10.201 17.4108 10.3213 17.883 10.5377C18.3551 10.7542 18.7797 11.0625 19.1319 11.4448C19.8539 12.0216 20.3187 12.8614 20.4246 13.7806C19.9294 14.9036 19.3644 15.9945 18.7331 17.0467C18.4791 18.8125 18.3687 20.5961 18.403 22.3799C18.403 24.6767 18.6918 25.8251 19.2694 25.8251C19.9845 25.8251 21.7172 24.3918 24.4676 21.5254C24.9627 20.9558 25.3202 20.671 25.5402 20.671ZM6.06769 23.1791C6.06769 25.3014 6.85154 26.3625 8.41924 26.3625C10.097 26.3349 11.4859 25.4392 12.586 23.6752C13.009 22.9813 13.3287 22.2292 13.5349 21.4428C13.4896 18.7732 13.7667 16.1079 14.36 13.505C12.1329 13.9457 10.099 15.0732 8.54301 16.7297C7.7223 17.5852 7.08053 18.5964 6.65544 19.7039C6.23035 20.8115 6.03052 21.9931 6.06769 23.1791Z" fill="white"/>
<path d="M43.7336 17.9156C43.7336 16.9969 43.211 16.5375 42.1659 16.5375C41.4508 16.5375 40.6532 17.2265 39.7731 18.6046C38.8976 19.9845 38.2563 21.5003 37.8753 23.0903V23.173C37.882 24.1533 38.0279 25.1277 38.3085 26.0669C38.5343 26.7363 38.6797 27.4302 38.7417 28.1341C38.7417 29.0528 37.5728 29.9715 35.235 30.8902C34.9337 31.0158 34.6122 31.0859 34.2861 31.0969C33.9625 31.1056 33.6455 31.0041 33.387 30.8088C33.1284 30.6136 32.9436 30.3362 32.8628 30.022C32.5684 29.0797 32.4358 28.0942 32.4709 27.1074C32.4709 25.8809 32.5053 24.7325 32.574 23.6622C32.6428 22.5919 32.7115 21.5859 32.7803 20.6442C32.8491 19.7255 32.9178 18.9124 32.9866 18.205C33.0553 17.4976 33.0897 16.9257 33.0897 16.4893C33.0897 15.5706 32.6634 15.1112 31.8108 15.1112C30.9582 15.1112 29.968 16.1103 28.8404 18.1085C27.7128 20.1067 27.1489 21.6915 27.1489 22.8629C27.1388 23.9598 27.2846 25.0526 27.5821 26.1083C27.8079 26.7776 27.9533 27.4716 28.0153 28.1754C28.0153 29.0941 26.8464 30.0128 24.5086 30.9316C24.2073 31.0572 23.8858 31.1272 23.5597 31.1383C23.2364 31.1457 22.92 31.0437 22.6617 30.8486C22.4034 30.6536 22.2183 30.3769 22.1364 30.0634C21.8282 28.9894 21.6958 27.8724 21.7445 26.756C21.6785 23.9234 21.8303 21.09 22.1983 18.2808C22.6222 15.6873 23.5774 13.2099 25.0037 11.0045C25.1534 10.6918 25.3792 10.4218 25.6604 10.2195C25.9416 10.0172 26.269 9.8891 26.6126 9.84692C27.5294 9.84692 28.3683 10.5911 29.1292 12.0794C29.3285 12.4209 29.4943 12.7808 29.6243 13.1543C30.1523 12.403 30.8495 11.7869 31.6594 11.3559C32.4694 10.9249 33.3692 10.6912 34.2861 10.6738C35.4525 10.6678 36.5813 11.0865 37.4628 11.852C37.9021 12.2067 38.2545 12.6576 38.4929 13.17C38.7313 13.6824 38.8493 14.2428 38.838 14.808V15.2628C39.5439 14.2916 40.4685 13.501 41.5365 12.9551C42.6046 12.4092 43.786 12.1233 44.985 12.1208C45.5975 12.0769 46.2126 12.1568 46.7937 12.3557C47.3748 12.5545 47.9101 12.8683 48.368 13.2783C48.7446 13.6497 49.0413 14.0943 49.24 14.5849C49.4387 15.0755 49.535 15.6017 49.5231 16.131C49.5319 17.1561 49.449 18.18 49.2756 19.1903C49.1106 20.109 48.9249 20.9634 48.7186 21.7535C48.5123 22.5436 48.3267 23.2534 48.1617 23.8827C48.0209 24.3532 47.9378 24.8391 47.9141 25.3297C47.9141 25.6742 48.0242 25.8464 48.2442 25.8464C48.8272 25.7659 49.3656 25.4888 49.7706 25.0609C50.3757 24.5373 50.9808 23.9654 51.5859 23.3452L53.2567 21.6295C53.7839 21.0921 54.1391 20.8233 54.3225 20.8233C54.7075 20.8233 54.9001 21.2827 54.9001 22.2014C54.9001 24.1307 53.9306 26.0049 51.9916 27.824C50.3668 29.5168 48.1459 30.5059 45.8032 30.5801C43.823 30.5801 42.8329 28.7749 42.8329 25.1643C42.8734 23.8993 43.0252 22.6404 43.2867 21.4021C43.5317 20.2543 43.6812 19.0882 43.7336 17.9156Z" fill="white"/>
<path d="M66.4243 26.9413C65.498 28.135 64.3127 29.1017 62.9581 29.7678C61.6035 30.434 60.1153 30.7823 58.6064 30.7862C55.5672 30.7862 53.2913 30.0076 51.7786 28.4503C51.032 27.6853 50.4493 26.7754 50.0662 25.7765C49.6831 24.7777 49.5077 23.7109 49.5508 22.6417C49.4636 19.5242 50.5707 16.4916 52.645 14.1665C53.6647 13.001 54.9304 12.0772 56.3503 11.4623C57.7702 10.8474 59.3089 10.5566 60.8548 10.6111C62.118 10.5649 63.3783 10.7614 64.5678 11.1899C66.1905 11.8514 67.0018 12.4715 67.0018 13.0503C67.0018 13.5097 65.8673 13.7393 63.5983 13.7393C62.5388 13.72 61.4867 13.9192 60.5072 14.3246C59.5278 14.73 58.6421 15.3329 57.905 16.0959C57.1469 16.8726 56.5533 17.7948 56.1598 18.8072C55.7664 19.8196 55.5812 20.9012 55.6154 21.9871C55.5799 23.1276 55.9696 24.2404 56.7086 25.1085C57.1009 25.538 57.5845 25.8737 58.1236 26.0907C58.6627 26.3078 59.2436 26.4007 59.8234 26.3626C60.986 26.4052 62.137 26.1187 63.1445 25.5357C62.1996 24.916 61.4324 24.0599 60.9187 23.0521C60.4049 22.0442 60.1625 20.9196 60.2153 19.7891C60.1966 18.4426 60.7079 17.143 61.6386 16.1716C62.1073 15.6396 62.6858 15.2162 63.3341 14.9306C63.9824 14.645 64.6849 14.5042 65.3929 14.5179C66.9193 14.5179 68.0126 14.9383 68.6727 15.7789C69.3639 16.7309 69.7129 17.8894 69.6628 19.0656C69.6352 20.5279 69.3125 21.9694 68.7139 23.3032H68.9615C70.1204 23.294 71.2331 22.846 72.0763 22.0492C72.4063 21.7184 72.6882 21.429 72.922 21.181C73.006 21.076 73.1101 20.989 73.2282 20.9251C73.3463 20.8612 73.476 20.8217 73.6096 20.8089C73.9946 20.8089 74.1872 21.2682 74.1872 22.187C74.2395 22.8888 74.1331 23.5935 73.876 24.2485C73.6188 24.9034 73.2175 25.4918 72.702 25.9698C71.8 26.756 70.645 27.1891 69.4497 27.1894C68.4356 27.2045 67.4224 27.1214 66.4243 26.9413ZM66.053 22.1181C66.4938 21.2165 66.7287 20.228 66.7406 19.2241C66.7406 18.3054 66.438 17.846 65.8329 17.846C65.5854 17.846 65.3791 18.0252 65.2141 18.3835C65.0576 18.7059 64.9732 19.0586 64.9666 19.417C64.9518 19.9221 65.0405 20.4249 65.2274 20.8942C65.4143 21.3636 65.6952 21.7895 66.053 22.1456V22.1181Z" fill="white"/>
<path d="M159.874 30.7795C162.153 30.7795 164 28.9285 164 26.6452C164 24.3619 162.153 22.511 159.874 22.511C157.596 22.511 155.749 24.3619 155.749 26.6452C155.749 28.9285 157.596 30.7795 159.874 30.7795Z" fill="#CCE8FA"/>
<path d="M117.32 21.4292C117.778 21.4292 118.007 22.0631 118.007 23.3309C117.94 24.2259 117.641 25.0878 117.141 25.8322C116.538 26.8414 115.779 27.7485 114.893 28.5194C113.971 29.334 112.936 30.0095 111.819 30.5245C110.829 31.013 109.746 31.281 108.643 31.31C107.806 31.3567 106.973 31.1554 106.25 30.7312C105.66 30.3391 105.186 29.7969 104.875 29.1602C104.416 28.2415 104.031 26.4569 103.719 23.8064C103.549 21.9496 103.245 20.1074 102.812 18.2941C102.126 18.17 101.482 17.879 100.935 17.4465C100.68 17.2658 100.473 17.026 100.33 16.7477C100.188 16.4694 100.114 16.1607 100.116 15.848C100.094 15.5582 100.164 15.269 100.316 15.0215C100.468 14.774 100.694 14.5809 100.962 14.4699C101.568 14.1854 102.232 14.044 102.901 14.0565C103.592 14.0462 104.271 14.2326 104.861 14.5939C105.617 13.987 106.254 13.2439 106.738 12.4028C107.256 11.3074 107.493 10.0992 107.425 8.88866C107.454 8.22615 107.335 7.56562 107.078 6.95447C106.821 6.34332 106.433 5.79672 105.94 5.35389C104.991 4.46732 103.552 4.02404 101.622 4.02404C100.144 3.97467 98.6656 4.12767 97.2285 4.4788C96.3295 4.73677 95.4533 5.06863 94.6088 5.47102C93.88 5.82932 93.2336 6.16006 92.6698 6.46324C92.1861 6.74429 91.6403 6.90056 91.0815 6.91801C90.5864 6.91801 90.3389 6.75953 90.3389 6.44257C90.4594 5.86567 90.7298 5.33087 91.1227 4.89223C91.7735 4.06067 92.5536 3.33945 93.433 2.7562C95.9653 0.966861 98.9985 0.0284167 102.097 0.0758365C104.866 -0.0185477 107.611 0.615762 110.059 1.91557C111.213 2.53738 112.169 3.47185 112.818 4.61227C113.468 5.7527 113.784 7.0531 113.731 8.36499C113.834 10.4942 113.175 12.5905 111.874 14.277C110.649 15.8202 109.021 16.9936 107.171 17.667C107.596 18.6128 107.934 19.5953 108.182 20.6023C108.443 21.6497 108.698 22.6143 108.945 23.4963C109.144 24.2561 109.428 24.9911 109.791 25.6875C109.884 25.9253 110.042 26.1324 110.246 26.2857C110.449 26.439 110.692 26.5325 110.946 26.5557C111.57 26.479 112.151 26.1952 112.596 25.7495C113.242 25.212 113.882 24.6263 114.515 23.9924C115.147 23.3585 115.711 22.7728 116.206 22.2354C116.729 21.6979 117.1 21.4292 117.32 21.4292ZM99.3738 6.54593C99.7313 6.54593 99.9101 7.00529 99.9101 7.92401C99.9132 8.80865 99.858 9.69254 99.7451 10.5699C99.517 12.0757 99.2002 13.5666 98.7962 15.0349C97.8061 18.7833 97.311 20.9744 97.311 21.6083V27.6857C97.37 28.3071 97.24 28.9319 96.9381 29.4779C96.6362 30.0239 96.1766 30.4656 95.6196 30.745L94.1137 31.4341C93.6009 31.6613 93.0448 31.7741 92.4841 31.7648C91.329 31.7648 90.7514 30.435 90.7514 27.7753C90.8862 24.3479 91.5114 20.9577 92.6079 17.7084C93.4985 14.4674 94.8019 11.3549 96.4859 8.44768C96.8229 7.9665 97.2257 7.53508 97.6823 7.16606C98.1534 6.76232 98.7539 6.54216 99.3738 6.54593Z" fill="#CCE8FA"/>
<path d="M152.841 21.4289C153.299 21.4289 153.528 22.0628 153.528 23.3306C153.457 24.2268 153.154 25.0889 152.648 25.8318C152.046 26.8413 151.287 27.7484 150.4 28.5191C149.478 29.3332 148.442 30.0086 147.326 30.5242C146.209 31.046 144.991 31.3143 143.758 31.3097C143.21 31.3393 142.662 31.245 142.155 31.0339C141.648 30.8228 141.195 30.5003 140.829 30.0901C140.146 29.3359 139.77 28.3523 139.777 27.334C139.797 26.1806 139.964 25.0346 140.272 23.9232C140.62 22.6737 140.987 21.36 141.372 19.9819C142.417 16.307 142.953 13.73 142.981 12.2509C143.006 11.7494 142.922 11.2485 142.733 10.7832C142.646 10.6106 142.509 10.4687 142.339 10.3763C142.17 10.284 141.976 10.2457 141.784 10.2664C140.959 10.2664 140.079 10.7625 139.144 11.7548C138.101 12.9006 137.213 14.1795 136.504 15.5583C134.71 18.7213 133.679 22.2606 133.492 25.8939L133.657 27.0514C133.714 27.4624 133.741 27.8769 133.74 28.2917C133.719 28.767 133.592 29.2316 133.367 29.6505C133.142 30.0694 132.825 30.4317 132.44 30.7103C131.635 31.4172 130.602 31.8066 129.532 31.8058C129.236 31.8055 128.947 31.7168 128.702 31.5511C128.457 31.3854 128.267 31.1502 128.156 30.8756C127.833 30.1553 127.678 29.3706 127.703 28.5811C127.758 27.3203 127.965 26.0709 128.321 24.8603C128.734 23.2893 129.192 21.6218 129.697 19.8579C131.017 15.2 131.691 11.7272 131.718 9.43958C131.76 8.50099 131.613 7.56351 131.285 6.68342C131.147 6.36224 130.911 6.09318 130.611 5.9149C130.31 5.73662 129.961 5.6583 129.614 5.6912C128.129 5.6912 126.657 6.75232 125.2 8.87457C123.742 10.9968 122.436 14.2904 121.28 18.7554C120.978 19.913 120.749 20.919 120.593 21.7734L120.552 22.5589C120.941 24.1898 121.203 25.8485 121.335 27.52C121.335 29.1186 120.772 30.1935 119.644 30.7447L118.138 31.4337C117.653 31.6553 117.125 31.7682 116.591 31.7645C115.216 31.7645 114.528 30.4484 114.528 27.8163C114.528 25.1841 115.239 20.0462 116.66 12.4025C117.182 9.64629 117.444 8.10284 117.444 7.7721C117.444 5.53961 116.88 4.42336 115.752 4.42336C115.376 4.42072 115.008 4.53639 114.7 4.7541C114.384 4.9746 114.068 5.20428 113.751 5.44314C113.435 5.68201 113.107 5.93466 112.768 6.20109C112.432 6.42327 112.036 6.53854 111.634 6.53183C111.207 6.53183 110.994 6.15975 110.994 5.41558C110.996 4.6664 111.19 3.93032 111.559 3.27851C111.928 2.6267 112.458 2.08121 113.098 1.69476C114.528 0.664856 116.254 0.132426 118.014 0.178876C120.49 0.178876 121.947 1.32728 122.388 3.62408C122.498 4.31312 122.58 5.0435 122.635 5.81523C124.67 2.00254 127.242 0.0961914 130.35 0.0961914C133.756 0.0961914 135.688 1.72233 136.146 4.9746C136.316 5.97112 136.385 6.98221 136.352 7.99259V8.32333C138.14 5.84279 140.258 4.60251 142.706 4.60251C146.171 4.60251 147.904 6.6972 147.904 10.8866C147.861 13.0407 147.578 15.1832 147.058 17.274C146.494 19.7132 146.082 21.4633 145.821 22.5245C145.598 23.3269 145.466 24.1522 145.429 24.9843C145.429 26.0317 145.793 26.5553 146.522 26.5553C147.251 26.5553 148.99 25.1221 151.741 22.2557C152.254 21.7045 152.621 21.4289 152.841 21.4289Z" fill="#CCE8FA"/>
<path d="M94.0795 15.9375C94.7671 15.9375 95.1246 16.6265 95.1246 17.9288C95.0894 19.4028 94.7768 20.8569 94.2033 22.2147C93.5423 23.8301 92.6123 25.3213 91.4529 26.6245C90.1396 28.115 88.5581 29.3445 86.791 30.2489C84.7179 31.2927 82.4201 31.8086 80.1008 31.751C77.6075 31.7808 75.1962 30.8595 73.3555 29.174C71.4257 27.4514 70.4608 24.9685 70.4608 21.7254C70.4262 18.7293 70.891 15.7485 71.836 12.9057C72.649 10.4471 73.8617 8.13986 75.4252 6.07734C76.7977 4.2591 78.521 2.73599 80.4927 1.59857C82.1312 0.601132 84.0013 0.0500704 85.9178 0C88.8928 0 90.3803 1.32755 90.3803 3.98265C90.4414 5.25633 90.1512 6.52227 89.5414 7.64146C88.9822 8.56018 88.4138 9.01954 87.8362 9.01954C87.4526 9.01939 87.0734 8.93762 86.7238 8.77964C86.3741 8.62165 86.0619 8.39106 85.8078 8.10312C85.5677 7.82419 85.2742 7.59634 84.9447 7.43301C84.6152 7.26969 84.2564 7.17422 83.8894 7.15224C83.2018 7.15224 81.3041 7.07645 79.702 9.66035C79.0734 10.5164 78.6072 11.481 78.3268 12.5061C77.3879 14.9209 76.921 17.4941 76.9516 20.0855C77.2016 21.9525 78.1717 23.6469 79.6539 24.8055C80.5336 25.4176 81.598 25.7049 82.6655 25.6185C84.561 25.4079 86.3072 24.4874 87.5543 23.0415C88.4894 22.0355 89.3145 21.0846 90.2015 20.058C91.0885 19.0313 91.8723 18.0873 92.5462 17.2191C93.22 16.3509 93.7288 15.9375 94.0795 15.9375Z" fill="#CCE8FA"/>
</svg>
