<svg width="618" height="116" viewBox="0 0 618 116" fill="none" xmlns="http://www.w3.org/2000/svg">
<path fill-rule="evenodd" clip-rule="evenodd" d="M618 0H0V112.734L28.8295 20.5316H47.9585L78.0061 116H82.988V20.5316H110.295L129.85 95.3694L149.335 20.5316H176.642V116H196.37C195.738 115.384 195.126 114.738 194.533 114.061C187.896 106.433 184.53 95.7721 184.435 82.0791V64.3824C184.435 50.1682 187.73 39.0812 194.32 31.1212C200.91 23.1139 210.059 19.1102 221.769 19.1102C233.289 19.1102 242.367 23.0428 249.005 30.908C255.642 38.7258 259.008 49.7181 259.102 63.8849V81.5816C259.102 95.4641 255.808 106.243 249.218 113.919C248.597 114.647 247.953 115.341 247.287 116H273.648C271.628 114.104 269.875 111.942 268.389 109.512C265.308 104.395 263.767 98.3544 263.767 91.3894H284.745C284.745 97.3594 285.907 101.695 288.23 104.395C290.553 107.096 294.345 108.446 299.607 108.446C306.908 108.446 310.559 104.585 310.559 96.8619C310.559 92.645 309.468 89.4705 307.287 87.3383C305.154 85.1588 301.243 82.9082 295.554 80.5866C285.172 76.654 277.705 72.0581 273.154 66.7988C268.603 61.4922 266.327 55.238 266.327 48.0361C266.327 39.3181 269.409 32.3294 275.572 27.0702C281.782 21.7635 289.652 19.1102 299.181 19.1102C305.533 19.1102 311.199 20.4606 316.176 23.1612C321.154 25.8146 324.97 29.5813 327.625 34.4615C330.327 39.3417 331.679 44.8853 331.679 51.0921H310.843C310.843 46.2593 309.8 42.5873 307.714 40.0761C305.676 37.5176 302.713 36.2383 298.825 36.2383C295.175 36.2383 292.33 37.3281 290.292 39.5076C288.253 41.6397 287.234 44.5299 287.234 48.1782C287.234 51.0211 288.372 53.6033 290.647 55.925C292.923 58.1992 296.953 60.5683 302.736 63.0321C312.834 66.6804 320.159 71.1579 324.71 76.4645C329.308 81.7711 331.607 88.5229 331.607 96.7197C331.607 104.686 329.361 111.113 324.869 116H358.672V37.944H333.499V20.5316H405.25V37.944H379.65V116H397.202L427.053 20.5316H446.182L476.23 116H481.283V20.5316H514.634C525.111 20.5316 533.194 23.256 538.883 28.7048C544.619 34.1062 547.487 41.8055 547.487 51.8029C547.487 65.5432 542.486 75.1615 532.483 80.6577L547.613 116H571.495V37.944H546.321V20.5316H618V0ZM618 37.944H592.472V116H618V37.944ZM524.845 116L512.572 86.2012H502.189V116H524.845ZM454.324 116L450.875 102.832H422.36L418.911 116H454.324ZM155.664 116V96.009L157.584 52.8689L139.221 116H155.664ZM120.338 116L101.975 52.8689L103.895 96.009V116H120.338ZM56.1005 116L52.6518 102.832H24.1362L20.6875 116H56.1005ZM38.3585 48.5336L48.0296 85.4194H28.6873L38.3585 48.5336ZM234.142 43.4165C236.797 47.965 238.124 54.9063 238.124 64.2403V82.2212C238.077 91.034 236.726 97.5489 234.071 101.766C231.416 105.935 227.363 108.02 221.911 108.02C216.27 108.02 212.098 105.888 209.396 101.624C206.693 97.312 205.342 90.6313 205.342 81.5816V63.1742C205.437 54.2193 206.812 47.5623 209.467 43.2033C212.121 38.7969 216.222 36.5937 221.769 36.5937C227.363 36.5937 231.487 38.8679 234.142 43.4165ZM436.582 48.5336L446.253 85.4194H426.911L436.582 48.5336ZM514.065 68.7888H502.189V37.944H514.421C522.527 37.944 526.581 43.1322 526.581 53.5086C526.581 58.1519 525.538 61.8712 523.452 64.6667C521.366 67.4148 518.237 68.7888 514.065 68.7888Z" fill="white"/>
</svg>
